<?xml version="1.0" standalone="no"?>
<!DOCTYPE svg PUBLIC "-//W3C//DTD SVG 20010904//EN"
 "http://www.w3.org/TR/2001/REC-SVG-20010904/DTD/svg10.dtd">
<svg version="1.0" xmlns="http://www.w3.org/2000/svg"
 width="378.000000pt" height="68.000000pt" viewBox="0 0 378.000000 68.000000"
 preserveAspectRatio="xMidYMid meet">

<g transform="translate(0.000000,68.000000) scale(0.100000,-0.100000)"
fill="#000000" stroke="none">
<path d="M489 666 c-57 -33 -59 -42 -59 -321 0 -283 3 -301 62 -331 41 -21
129 -15 159 12 44 39 49 70 49 314 0 245 -5 275 -49 314 -29 26 -125 32 -162
12z m96 -326 c0 -228 -1 -235 -20 -235 -19 0 -20 8 -23 225 -1 123 0 231 3
238 3 7 13 12 22 10 17 -3 18 -22 18 -238z"/>
<path d="M1148 664 c-54 -29 -58 -50 -58 -324 0 -278 3 -296 62 -326 41 -21
129 -15 159 12 44 39 49 69 49 322 0 232 -1 240 -23 273 -12 18 -34 39 -47 46
-34 17 -109 16 -142 -3z m97 -324 c0 -228 -1 -235 -20 -235 -19 0 -20 8 -23
225 -1 123 0 231 3 238 3 7 13 12 22 10 17 -3 18 -22 18 -238z"/>
<path d="M1468 663 c-57 -35 -60 -53 -56 -335 l3 -258 32 -31 c59 -59 176 -48
216 20 12 21 17 52 17 109 0 45 -3 83 -7 85 -5 3 -29 8 -55 11 l-47 7 -3 -83
c-3 -75 -5 -83 -23 -83 -19 0 -20 7 -20 235 0 228 1 235 20 235 17 0 21 -8 25
-60 l5 -60 35 3 c68 6 70 8 70 74 0 68 -18 106 -60 132 -36 21 -117 20 -152
-1z"/>
<path d="M1788 665 c-54 -31 -58 -51 -58 -325 0 -278 3 -296 62 -326 22 -11
48 -15 85 -12 44 4 60 11 86 37 30 30 32 36 35 121 4 99 7 94 -65 104 l-42 6
-3 -82 c-3 -75 -5 -83 -23 -83 -19 0 -20 7 -20 235 0 228 1 235 20 235 18 0
20 -8 23 -62 l3 -62 32 5 c86 14 80 7 75 85 -3 62 -7 73 -35 101 -27 27 -41
32 -90 35 -39 2 -67 -2 -85 -12z"/>
<path d="M2103 661 c-17 -11 -37 -29 -42 -40 -7 -12 -11 -116 -11 -284 0 -248
1 -266 20 -289 10 -14 33 -31 50 -38 41 -17 124 -8 151 16 44 39 49 70 49 314
0 245 -5 275 -49 314 -33 29 -126 33 -168 7z m102 -321 c0 -228 -1 -235 -20
-235 -19 0 -20 8 -23 225 -1 123 0 231 3 238 3 7 13 12 22 10 17 -3 18 -22 18
-238z"/>
<path d="M0 340 l0 -331 58 3 57 3 5 140 5 140 24 -100 c13 -55 27 -106 30
-113 4 -6 20 41 36 105 l30 118 3 -147 3 -148 54 0 55 0 0 330 0 330 -50 0
c-57 0 -49 18 -96 -207 -16 -73 -31 -127 -35 -120 -3 6 -21 83 -39 170 l-33
157 -54 0 -53 0 0 -330z"/>
<path d="M760 340 l0 -330 55 0 55 0 1 113 0 112 33 -110 33 -110 57 -3 c56
-3 57 -2 50 20 -36 115 -74 243 -74 254 0 7 6 17 14 21 33 18 46 66 46 166 0
168 -26 197 -180 197 l-90 0 0 -330z m155 135 c0 -86 -1 -90 -22 -93 -22 -3
-23 -1 -23 93 0 94 1 96 23 93 21 -3 22 -7 22 -93z"/>
<path d="M2490 341 l0 -331 55 0 54 0 3 147 3 148 30 -112 c16 -62 32 -113 35
-113 4 0 17 44 29 97 13 54 27 105 32 113 5 9 9 -47 9 -132 l0 -148 55 0 55 0
0 331 0 330 -52 -3 -53 -3 -35 -162 c-19 -90 -37 -163 -40 -163 -3 0 -21 73
-40 163 l-35 162 -53 3 -52 3 0 -330z"/>
<path d="M2970 662 c0 -5 -16 -152 -35 -328 -19 -175 -35 -320 -35 -321 0 -2
25 -3 55 -3 51 0 55 2 55 24 0 13 3 38 6 55 5 26 11 31 35 31 27 0 28 -2 31
-53 l3 -52 53 -3 c48 -3 52 -1 52 19 0 30 -59 587 -66 617 -4 20 -10 22 -79
22 -41 0 -75 -4 -75 -8z m94 -339 c5 -88 5 -93 -14 -93 -23 0 -24 17 -13 171
6 79 8 88 14 54 3 -22 9 -82 13 -132z"/>
<path d="M3250 340 l0 -331 118 3 117 3 3 29 c2 15 1 39 -2 52 -6 22 -12 24
-66 24 l-60 0 -2 273 -3 272 -52 3 -53 3 0 -331z"/>
<path d="M3540 340 l0 -330 121 0 120 0 -3 53 -3 52 -62 3 -63 3 0 274 0 275
-55 0 -55 0 0 -330z"/>
</g>
</svg>
