<?xml version="1.0" standalone="no"?>
<!DOCTYPE svg PUBLIC "-//W3C//DTD SVG 20010904//EN"
 "http://www.w3.org/TR/2001/REC-SVG-20010904/DTD/svg10.dtd">
<svg version="1.0" xmlns="http://www.w3.org/2000/svg"
 width="1231.000000pt" height="331.000000pt" viewBox="0 0 1231.000000 331.000000"
 preserveAspectRatio="xMidYMid meet">

<g transform="translate(0.000000,331.000000) scale(0.100000,-0.100000)"
fill="#000000" stroke="none">
<path d="M5277 3304 c-4 -4 -7 -400 -7 -881 l0 -873 25 0 25 0 1 768 1 767
192 -765 c169 -673 194 -765 211 -765 17 0 42 92 211 765 l192 765 1 -767 1
-768 25 0 26 0 -3 760 c-2 417 0 756 3 752 3 -4 91 -346 194 -759 159 -640
190 -753 205 -753 15 0 46 113 206 754 104 415 190 753 192 752 1 -2 3 -342 2
-755 l0 -751 25 0 25 0 0 880 c0 866 0 880 -20 880 -13 0 -22 -10 -28 -32 -5
-18 -96 -383 -203 -810 -106 -428 -196 -778 -199 -778 -3 0 -92 350 -199 778
-107 427 -198 792 -203 810 -6 20 -15 32 -26 32 -14 0 -50 -133 -221 -817
-113 -450 -207 -811 -210 -803 -2 8 -95 375 -205 815 -199 793 -210 828 -239
799z"/>
<path d="M1567 899 c-239 -56 -374 -346 -286 -614 39 -118 112 -200 226 -252
79 -37 209 -39 296 -4 70 28 163 110 199 178 56 104 76 259 49 378 -25 105
-107 218 -196 270 -80 47 -198 65 -288 44z m175 -71 c127 -54 220 -232 220
-422 0 -131 -25 -209 -86 -274 -49 -53 -99 -74 -177 -74 -153 -1 -274 113
-324 307 -21 84 -22 237 0 299 58 168 204 233 367 164z"/>
<path d="M3727 900 c-132 -34 -245 -142 -287 -276 -57 -186 -19 -382 99 -503
149 -152 384 -159 539 -16 32 29 70 75 84 102 81 150 81 346 0 496 -37 69
-129 151 -199 177 -65 25 -179 34 -236 20z m175 -72 c26 -11 67 -41 92 -68 85
-90 126 -208 126 -358 0 -220 -100 -347 -271 -346 -144 1 -275 134 -319 323
-18 79 -16 226 5 285 58 168 204 233 367 164z"/>
<path d="M4906 890 c-146 -52 -244 -179 -278 -360 -20 -109 10 -254 72 -345
131 -192 387 -242 543 -106 39 35 97 140 97 178 0 37 -13 27 -46 -35 -52 -98
-161 -146 -281 -123 -182 35 -286 190 -287 426 -1 162 47 258 153 304 64 27
178 30 238 6 73 -29 123 -105 123 -187 0 -26 3 -28 45 -28 40 0 45 2 45 23 0
89 -92 208 -185 241 -82 28 -170 30 -239 6z"/>
<path d="M6029 891 c-134 -43 -236 -164 -274 -323 -40 -172 10 -346 134 -460
80 -74 147 -100 261 -102 75 -1 92 3 143 28 39 19 71 44 97 77 40 51 80 153
65 166 -4 5 -10 3 -12 -3 -2 -6 -18 -35 -36 -64 -24 -39 -46 -61 -87 -84 -49
-27 -64 -31 -132 -30 -68 0 -86 5 -145 35 -48 24 -78 48 -105 84 -125 165
-128 458 -6 572 88 82 283 87 366 10 34 -31 50 -66 58 -125 l7 -52 43 0 c51 0
53 6 29 86 -46 154 -234 240 -406 185z"/>
<path d="M7160 897 c-183 -53 -295 -201 -307 -407 -15 -255 127 -451 352 -483
165 -24 327 63 404 217 69 139 69 320 0 463 -35 74 -132 165 -204 192 -73 28
-184 36 -245 18z m187 -73 c186 -89 275 -423 168 -634 -46 -91 -117 -133 -226
-133 -82 0 -142 27 -204 94 -168 179 -178 534 -19 655 73 56 187 63 281 18z"/>
<path d="M5 888 c-3 -7 -4 -206 -3 -443 l3 -430 25 0 25 0 5 332 5 332 180
-330 c168 -310 180 -329 195 -311 8 11 80 141 160 289 l145 270 3 -292 2 -292
55 -1 55 0 0 444 c0 351 -3 442 -12 438 -11 -4 -386 -670 -403 -717 -4 -9 -10
-17 -14 -17 -3 0 -28 39 -54 88 -44 81 -71 131 -159 292 -19 36 -70 129 -112
207 -79 146 -92 164 -101 141z"/>
<path d="M2490 456 l0 -443 48 1 47 1 3 222 2 223 38 0 37 0 148 -225 148
-225 39 0 c78 0 79 -4 -81 237 l-151 226 44 17 c104 39 158 109 158 204 0 68
-17 111 -58 150 -44 41 -106 53 -274 55 l-148 1 0 -444z m312 369 c49 -33 72
-94 66 -175 -8 -109 -62 -150 -195 -150 l-83 0 0 175 0 175 88 0 c76 0 92 -3
124 -25z"/>
<path d="M8606 893 c-3 -3 -6 -201 -6 -439 0 -423 0 -433 20 -439 11 -3 24 -3
30 0 7 4 10 116 9 332 0 178 1 326 3 328 3 3 123 -215 327 -592 19 -34 37 -63
40 -63 3 0 77 132 163 293 l158 292 0 -297 0 -298 55 0 55 0 0 445 c0 268 -4
445 -9 445 -5 0 -96 -156 -201 -347 -106 -192 -199 -359 -207 -372 l-15 -24
-27 49 c-15 27 -41 74 -57 104 -17 30 -95 173 -173 317 -78 145 -146 265 -150
268 -5 2 -11 2 -15 -2z"/>
<path d="M10187 893 c-7 -12 -335 -846 -339 -862 -2 -7 5 -15 15 -16 21 -4 27
7 95 185 l48 125 168 0 168 0 24 -65 c14 -36 41 -107 60 -157 l36 -93 49 0
c27 0 49 3 49 7 0 5 -97 263 -327 871 -6 13 -39 17 -46 5z m62 -332 c39 -101
70 -186 68 -188 -3 -2 -69 -2 -149 -1 l-144 3 68 175 c37 96 70 181 73 189 3
8 7 12 9 10 3 -2 36 -87 75 -188z"/>
<path d="M10960 455 l0 -446 235 2 235 1 0 23 c0 23 0 23 -162 24 -90 0 -175
1 -190 1 l-28 0 0 420 0 420 -45 0 -45 0 0 -445z"/>
<path d="M11830 454 l0 -445 235 2 235 2 0 24 0 23 -190 0 -190 0 0 420 0 420
-45 0 -45 0 0 -446z"/>
</g>
</svg>
